<!DOCTYPE svg PUBLIC "-//W3C//DTD SVG 1.1//EN" "http://www.w3.org/Graphics/SVG/1.1/DTD/svg11.dtd">

<!-- Uploaded to: SVG Repo, www.svgrepo.com, Transformed by: SVG Repo Mixer Tools -->
<svg fill="#b0b0b0" height="800px" width="800px" version="1.1" id="Layer_1" xmlns="http://www.w3.org/2000/svg"
    xmlns:xlink="http://www.w3.org/1999/xlink" viewBox="0 0 512 512" xml:space="preserve">

    <g id="SVGRepo_bgCarrier" stroke-width="0" />

    <g id="SVGRepo_tracerCarrier" stroke-linecap="round" stroke-linejoin="round" />

    <g id="SVGRepo_iconCarrier">
        <g>
            <g>
                <path
                    d="M484.097,335.217c-9.423-30.449-36.749-53.098-69.621-55.612v-0.24h0.002v-0.004l24.631-25.588l-61.205-56.833V145.27 h18.286c10.099,0,18.286-8.187,18.286-18.286c0-7.086-4.04-13.219-9.935-16.255h16.031c10.099,0,18.286-8.187,18.286-18.286 s-8.187-18.286-18.286-18.286h-85.333c-10.099,0-18.286,8.187-18.286,18.286c0,7.086,4.04,13.219,9.935,16.255h-16.03 c-7.347,0-13.667,4.344-16.573,10.595L256,83.744L72.891,253.774l24.633,25.331v0.501c-32.872,2.515-60.198,25.164-69.621,55.612 C11.257,344.648,0,362.526,0,382.985c0,30.248,24.61,54.857,54.857,54.857h402.286c30.248,0,54.857-24.609,54.857-54.857 C512,362.526,500.743,344.648,484.097,335.217z M97.524,401.27c-13.305,0-42.667,0-42.667,0c-10.099,0-18.286-8.187-18.286-18.286 c0-10.099,8.187-18.286,18.286-18.286h6.535c-0.285-1.992-0.44-4.025-0.44-6.095c0-21.494,15.895-39.268,36.571-42.227V401.27z M341.333,145.27v17.712L322.26,145.27H341.333z M274.286,150.63l99.254,92.164h-99.254V150.63z M237.714,150.63v92.164h-99.254 L237.714,150.63z M274.286,401.27h-36.571v-36.571h36.571V401.27z M377.905,401.27h-67.048v-73.143H201.143v73.143h-67.048 V279.365h243.81V401.27z M457.143,401.27c0,0-29.362,0-42.667,0v-84.893c20.676,2.959,36.571,20.732,36.571,42.227 c0,2.07-0.155,4.103-0.44,6.095h6.535c10.099,0,18.286,8.187,18.286,18.286C475.429,393.083,467.241,401.27,457.143,401.27z" />
            </g>
        </g>
    </g>

</svg>